HIERARCHY
ROOT Hips
{
 OFFSET 0.000000 0.000000 0.000000
 CHANNELS 6 Xposition Yposition Zposition Yrotation Xrotation Zrotation
 JOINT Chest
 {
  OFFSET 0.000000 10.366939 -0.000175
  CHANNELS 3 Yrotation Xrotation Zrotation
  JOINT Chest2
  {
   OFFSET 0.000000 11.433790 0.000318
   CHANNELS 3 Yrotation Xrotation Zrotation
   JOINT Chest3
   {
    OFFSET 0.000000 10.331133 0.000000
    CHANNELS 3 Yrotation Xrotation Zrotation
    JOINT Chest4
    {
     OFFSET 0.000000 10.331133 0.000000
     CHANNELS 3 Yrotation Xrotation Zrotation
     JOINT Neck
     {
      OFFSET 0.000000 14.530095 0.000000
      CHANNELS 3 Yrotation Xrotation Zrotation
      JOINT Head
      {
       OFFSET 0.000000 9.616255 0.000757
       CHANNELS 3 Yrotation Xrotation Zrotation
       End Site
       {
        OFFSET 0.000000 18.398191 0.000395
       }
      }
     }
     JOINT RightCollar
     {
      OFFSET -3.159467 8.107572 0.000000
      CHANNELS 3 Yrotation Xrotation Zrotation
      JOINT RightShoulder
      {
       OFFSET -14.759419 0.000000 0.000000
       CHANNELS 3 Yrotation Xrotation Zrotation
       JOINT RightElbow
       {
        OFFSET 0.000000 -31.561777 0.000000
        CHANNELS 3 Yrotation Xrotation Zrotation
        JOINT RightWrist
        {
         OFFSET 0.000000 -25.811607 0.000000
         CHANNELS 3 Yrotation Xrotation Zrotation
         End Site
         {
          OFFSET 0.000000 -19.296333 0.000000
         }
        }
       }
      }
     }
     JOINT LeftCollar
     {
      OFFSET 3.159467 8.107572 0.000000
      CHANNELS 3 Yrotation Xrotation Zrotation
      JOINT LeftShoulder
      {
       OFFSET 14.759419 0.000000 0.000000
       CHANNELS 3 Yrotation Xrotation Zrotation
       JOINT LeftElbow
       {
        OFFSET 0.000000 -31.561777 0.000000
        CHANNELS 3 Yrotation Xrotation Zrotation
        JOINT LeftWrist
        {
         OFFSET 0.000000 -25.811607 0.000000
         CHANNELS 3 Yrotation Xrotation Zrotation
         End Site
         {
          OFFSET 0.000000 -19.296333 0.000000
         }
        }
       }
      }
     }
    }
   }
  }
 }
 JOINT RightHip
 {
  OFFSET -8.420485 0.000859 0.000088
  CHANNELS 3 Yrotation Xrotation Zrotation
  JOINT RightKnee
  {
   OFFSET 0.000000 -43.611855 -0.000083
   CHANNELS 3 Yrotation Xrotation Zrotation
   JOINT RightAnkle
   {
    OFFSET 0.000000 -42.630478 -0.000140
    CHANNELS 3 Yrotation Xrotation Zrotation
    JOINT RightToe
    {
     OFFSET 0.000000 -7.539428 17.119853
     CHANNELS 3 Yrotation Xrotation Zrotation
     End Site
     {
      OFFSET 0.000000 -1.595212 6.940629
     }
    }
   }
  }
 }
 JOINT LeftHip
 {
  OFFSET 8.420485 0.000859 0.000088
  CHANNELS 3 Yrotation Xrotation Zrotation
  JOINT LeftKnee
  {
   OFFSET 0.000000 -43.611855 -0.000083
   CHANNELS 3 Yrotation Xrotation Zrotation
   JOINT LeftAnkle
   {
    OFFSET 0.000000 -42.630478 -0.000140
    CHANNELS 3 Yrotation Xrotation Zrotation
    JOINT LeftToe
    {
     OFFSET 0.000000 -7.539428 17.119853
     CHANNELS 3 Yrotation Xrotation Zrotation
     End Site
     {
      OFFSET 0.000000 -1.595212 6.940629
     }
    }
   }
  }
 }
}
MOTION
Frames: 5
Frame Time: 0.008333
408.364634 46.931480 122.158575 -79.417787 -15.226234 1.137872 1.212982 12.527538 -0.322063 0.313828 5.499437 -0.583491 0.313828 5.499437 -0.583491 0.240455 4.124284 -0.440113 2.379330 11.908786 0.332436 4.411172 -14.043072 -0.386746 0.056891 4.225836 11.319435 2.820962 -24.852779 -25.311638 68.640880 -49.474990 -37.236003 19.966800 -9.091856 9.969966 0.788064 2.118764 -8.779424 -0.771424 -27.212324 13.333493 -51.066071 -30.657395 15.404988 -22.590798 -1.248841 -13.113378 -9.509887 -78.335750 -12.228263 174.650231 67.228185 168.203655 2.434516 -19.314679 1.332885 -0.329311 0.770563 -0.146011 -17.859198 -79.342077 43.671554 -147.210458 63.176244 -148.718951 0.334860 -13.858913 -1.472571 -0.414490 -1.233504 -0.217523
408.366371 46.930373 122.156255 -79.414924 -15.215558 1.132157 1.210000 12.519899 -0.316610 0.314115 5.500249 -0.583105 0.314115 5.500249 -0.583105 0.240667 4.124893 -0.439827 2.390880 11.912207 0.331057 4.433770 -14.036357 -0.394217 0.055631 4.217555 11.320585 2.820860 -24.848958 -25.310889 68.653353 -49.468848 -37.249336 19.956893 -9.092747 9.977480 0.796093 2.112415 -8.780630 -0.776537 -27.215366 13.332051 -51.058260 -30.647526 15.397830 -22.586209 -1.255742 -13.102570 -9.545533 -78.347489 -12.192599 174.645097 67.228627 168.200753 2.434848 -19.313119 1.326209 -0.328718 0.772323 -0.142635 -17.909325 -79.352903 43.718332 -147.200715 63.173322 -148.708425 0.335889 -13.853946 -1.456369 -0.414722 -1.230846 -0.223468
408.366387 46.928517 122.154897 -79.410765 -15.218799 1.124687 1.207445 12.527165 -0.309899 0.314964 5.502561 -0.581378 0.314964 5.502561 -0.581378 0.241290 4.126627 -0.438542 2.403041 11.910893 0.329842 4.457602 -14.038420 -0.401808 0.056529 4.205906 11.320170 2.821710 -24.849745 -25.314765 68.662984 -49.463232 -37.263602 19.949018 -9.091936 9.978637 0.797068 2.098396 -8.785984 -0.783708 -27.216259 13.328371 -51.063633 -30.589404 15.389533 -22.554531 -1.299862 -13.066872 -9.568082 -78.343718 -12.175475 174.635167 67.227835 168.192313 2.446950 -19.315340 1.323887 -0.336224 0.774832 -0.145375 -17.947614 -79.350942 43.749450 -147.206070 63.167982 -148.712604 0.338270 -13.856539 -1.436935 -0.417960 -1.230120 -0.231511
408.369314 46.925538 122.155377 -79.402827 -15.210369 1.126169 1.197338 12.522773 -0.310454 0.315877 5.503550 -0.580860 0.315877 5.503550 -0.580860 0.241971 4.127368 -0.438162 2.414233 11.910081 0.327674 4.479977 -14.039540 -0.410790 0.055765 4.202458 11.319423 2.838266 -24.845782 -25.329978 68.659987 -49.460248 -37.275029 19.942995 -9.097589 9.980509 0.799606 2.091861 -8.790167 -0.783052 -27.217430 13.324014 -51.061979 -30.572366 15.393693 -22.545071 -1.319963 -13.067904 -9.548169 -78.353831 -12.197726 174.635708 67.227353 168.195762 2.423828 -19.320096 1.331312 -0.334765 0.781193 -0.145001 -17.953376 -79.360034 43.741785 -147.214425 63.170343 -148.723799 0.339600 -13.867190 -1.412285 -0.421875 -1.222557 -0.240887
408.373500 46.922361 122.154349 -79.390069 -15.204518 1.122142 1.186975 12.519084 -0.308948 0.315583 5.505405 -0.580189 0.315583 5.505405 -0.580189 0.241745 4.128761 -0.437657 2.425503 11.907927 0.325242 4.502654 -14.043139 -0.420359 0.050209 4.195541 11.317817 2.852238 -24.838227 -25.330365 68.668307 -49.454348 -37.300082 19.932216 -9.102812 9.990625 0.802911 2.080992 -8.787307 -0.789398 -27.218426 13.315527 -51.067878 -30.516651 15.391177 -22.511836 -1.357416 -13.048039 -9.572892 -78.360910 -12.181837 174.627219 67.227824 168.189819 2.406730 -19.324851 1.328994 -0.328942 0.788094 -0.141556 -17.994371 -79.363453 43.765732 -147.202850 63.171544 -148.717520 0.341808 -13.879793 -1.390407 -0.421431 -1.212716 -0.246782
